HIERARCHY
ROOT Hips
{
	OFFSET 0.000000 0.000000 0.000000
	CHANNELS 6 Xposition Yposition Zposition Xrotation Yrotation Zrotation
	JOINT LeftUpLeg_virtual
	{
		OFFSET 0.000000 0.000000 0.000000
		CHANNELS 3 Xrotation Yrotation Zrotation
		JOINT LeftUpLeg
		{
			OFFSET 11.394100 -6.187798 -0.413800
			CHANNELS 3 Xrotation Yrotation Zrotation
			JOINT LeftLeg
			{
				OFFSET 0.430247 -32.302673 3.732800
				CHANNELS 3 Xrotation Yrotation Zrotation
				JOINT LeftFoot
				{
					OFFSET -0.430247 -48.264931 -6.423300
					CHANNELS 3 Xrotation Yrotation Zrotation
					JOINT LeftToeBase
					{
						OFFSET 4.230900 -16.068199 23.438400
						CHANNELS 3 Xrotation Yrotation Zrotation
						JOINT LeftToe_End
						{
							OFFSET 4.510700 0.695400 19.974600
							CHANNELS 3 Xrotation Yrotation Zrotation
							End Site
							{
								OFFSET 0 0 0
							}
						}
					}
				}
			}
		}
	}
	JOINT RightUpLeg_virtual
	{
		OFFSET 0.000000 0.000000 0.000000
		CHANNELS 3 Xrotation Yrotation Zrotation
		JOINT RightUpLeg
		{
			OFFSET -11.333700 -6.187798 -0.413800
			CHANNELS 3 Xrotation Yrotation Zrotation
			JOINT RightLeg
			{
				OFFSET -0.430392 -32.302628 3.733000
				CHANNELS 3 Xrotation Yrotation Zrotation
				JOINT RightFoot
				{
					OFFSET 0.430392 -48.264973 -6.423500
					CHANNELS 3 Xrotation Yrotation Zrotation
					JOINT RightToeBase
					{
						OFFSET -4.230900 -16.068199 23.438400
						CHANNELS 3 Xrotation Yrotation Zrotation
						JOINT RightToe_End
						{
							OFFSET -4.510700 0.695400 19.974600
							CHANNELS 3 Xrotation Yrotation Zrotation
							End Site
							{
								OFFSET 0 0 0
							}
						}
					}
				}
			}
		}
	}
	JOINT Spine_virtual
	{
		OFFSET 0.000000 0.000000 0.000000
		CHANNELS 3 Xrotation Yrotation Zrotation
		JOINT Spine
		{
			OFFSET -0.002400 12.777504 0.315300
			CHANNELS 3 Xrotation Yrotation Zrotation
			JOINT Spine1
			{
				OFFSET -0.002067 5.816869 0.032633
				CHANNELS 3 Xrotation Yrotation Zrotation
				JOINT Spine1_split
				{
					OFFSET -0.002067 5.816869 0.032633
					CHANNELS 3 Xrotation Yrotation Zrotation
					JOINT Spine2
					{
						OFFSET -0.002067 5.816869 0.032633
						CHANNELS 3 Xrotation Yrotation Zrotation
						JOINT Neck_virtual
						{
							OFFSET 0.000000 0.000000 0.000000
							CHANNELS 3 Xrotation Yrotation Zrotation
							JOINT Neck
							{
								OFFSET -0.003700 21.199493 -0.826900
								CHANNELS 3 Xrotation Yrotation Zrotation
								JOINT Head
								{
									OFFSET 0.000000 20.442200 4.834800
									CHANNELS 3 Xrotation Yrotation Zrotation
									JOINT HeadTop_End
									{
										OFFSET 0.000000 34.668396 4.968400
										CHANNELS 3 Xrotation Yrotation Zrotation
										End Site
										{
											OFFSET 0 0 0
										}
									}
								}
							}
						}
						JOINT LeftShoulder_virtual
						{
							OFFSET 0.000000 0.000000 0.000000
							CHANNELS 3 Xrotation Yrotation Zrotation
							JOINT LeftShoulder
							{
								OFFSET 3.288150 8.794197 -1.372250
								CHANNELS 3 Xrotation Yrotation Zrotation
								JOINT LeftShoulder_split
								{
									OFFSET 3.288150 8.794197 -1.372250
									CHANNELS 3 Xrotation Yrotation Zrotation
									JOINT LeftArm
									{
										OFFSET 11.953299 -2.279007 -0.146200
										CHANNELS 3 Xrotation Yrotation Zrotation
										JOINT LeftForeArm
										{
											OFFSET 18.448900 0.000000 0.000000
											CHANNELS 3 Xrotation Yrotation Zrotation
											JOINT LeftHand
											{
												OFFSET 29.527798 0.000000 0.000000
												CHANNELS 3 Xrotation Yrotation Zrotation
												End Site
												{
													OFFSET 0 0 0
												}
											}
										}
									}
								}
							}
						}
						JOINT RightShoulder_virtual
						{
							OFFSET 0.000000 0.000000 0.000000
							CHANNELS 3 Xrotation Yrotation Zrotation
							JOINT RightShoulder
							{
								OFFSET -3.249400 8.794197 -1.372250
								CHANNELS 3 Xrotation Yrotation Zrotation
								JOINT RightShoulder_split
								{
									OFFSET -3.249400 8.794197 -1.372250
									CHANNELS 3 Xrotation Yrotation Zrotation
									JOINT RightArm
									{
										OFFSET -11.953299 -2.279007 -0.146200
										CHANNELS 3 Xrotation Yrotation Zrotation
										JOINT RightForeArm
										{
											OFFSET -18.448900 0.000000 0.000000
											CHANNELS 3 Xrotation Yrotation Zrotation
											JOINT RightHand
											{
												OFFSET -29.527802 0.000000 0.000000
												CHANNELS 3 Xrotation Yrotation Zrotation
												End Site
												{
													OFFSET 0 0 0
												}
											}
										}
									}
								}
							}
						}
					}
				}
			}
		}
	}
}
MOTION
Frames: 9
Frame Time: 0.03333333
-0.120874 87.712852 -9.034534 0.000000 0.000000 0.000000 11.408479 -54.989389 11.858893 -44.666592 11.511156 24.412694 36.805424 -8.895204 1.317193 1.986505 2.304872 -14.315007 0.475117 -5.613542 1.658901 0.000000 0.000000 0.000000 9.536785 -52.238786 10.318512 -34.621433 -13.666024 -25.036492 35.551090 13.616770 -4.291372 -0.506931 -16.891106 28.313146 11.262072 11.804583 -23.967006 0.000000 0.000000 0.000000 3.022955 -48.357739 6.246447 16.179188 3.444090 -1.954759 2.458618 -4.260334 -1.268567 0.209519 0.155028 -0.021430 0.000000 0.000000 0.000000 3.336606 -0.986357 -1.900312 5.410194 4.182445 2.685395 7.457589 37.688731 -12.440802 0.000000 0.000000 0.000000 3.170892 -3.405032 -2.693544 6.221426 -3.115936 -14.852455 -1.437369 -4.219156 1.423178 -41.479404 17.966720 -23.332305 9.205956 -32.996080 2.476056 0.000000 0.000000 0.000000 5.018208 -2.118358 -1.540939 -3.140834 0.438842 8.347393 4.323119 4.773270 1.597966 2.379182 -8.641574 51.934320 -12.607741 28.437520 10.675613 0.000000 0.000000 0.000000 
-0.533556 88.534332 -7.193336 0.000000 0.000000 0.000000 11.354421 -54.856586 11.318347 -44.594285 12.244005 24.685851 37.486052 -9.353435 1.626095 1.923786 2.183248 -15.035068 -0.141965 -5.764198 2.237233 0.000000 0.000000 0.000000 10.541617 -52.564145 10.490097 -34.115166 -13.722863 -24.538595 34.991022 13.227262 -4.192683 0.578779 -16.876615 28.459377 10.125817 11.842065 -23.348802 0.000000 0.000000 0.000000 4.030247 -48.500644 6.322175 15.662978 3.309372 -1.786660 2.319376 -4.337848 -1.241949 0.118146 0.151995 -0.052228 0.000000 0.000000 0.000000 3.330091 -1.020344 -1.870007 5.154926 4.210637 2.744860 6.977616 38.288002 -12.833703 0.000000 0.000000 0.000000 3.167434 -3.458433 -2.655317 6.169047 -3.469960 -14.401387 -1.767981 -4.169272 1.805409 -42.201287 18.268495 -22.616853 9.006970 -33.606819 2.590234 0.000000 0.000000 0.000000 5.027339 -2.136287 -1.529694 -3.245217 0.975685 8.661058 3.643424 3.858066 1.037075 0.252056 -9.069130 51.065858 -12.414235 27.199314 10.456475 0.000000 0.000000 0.000000 
-0.972151 89.542747 -4.949249 0.000000 0.000000 0.000000 11.642387 -54.709423 10.893320 -43.559443 12.977498 24.403214 38.190678 -9.878587 1.810071 0.490464 2.199640 -15.089855 -1.198247 -5.953212 3.179720 0.000000 0.000000 0.000000 11.733523 -52.624412 10.608281 -33.868944 -13.231748 -23.633710 35.099092 12.552269 -4.109921 1.072540 -17.490462 27.639610 8.279903 11.976476 -21.941469 0.000000 0.000000 0.000000 5.611084 -48.562546 6.591630 14.844387 3.128211 -1.482190 2.144683 -4.549796 -1.154632 0.044899 0.190525 -0.037140 0.000000 0.000000 0.000000 3.363244 -1.238764 -1.723729 4.705063 4.529551 2.546694 6.168509 40.290808 -13.812885 0.000000 0.000000 0.000000 3.100506 -3.652964 -2.504478 6.054945 -4.017659 -13.915881 -1.832776 -4.012320 1.938848 -43.381612 18.275800 -21.551554 9.252605 -33.344594 2.959199 0.000000 0.000000 0.000000 4.915722 -2.331198 -1.412991 -3.383093 1.717892 9.239431 2.997946 2.858032 0.858736 -3.067105 -9.221375 49.494078 -12.258051 24.790455 10.283827 0.000000 0.000000 0.000000 
-1.350907 90.232613 -2.613068 0.000000 0.000000 0.000000 12.199122 -54.517484 10.645042 -42.060267 13.515608 23.677916 39.366516 -10.287324 1.882813 -2.341407 2.472775 -14.232320 -1.492042 -6.080068 3.859972 0.000000 0.000000 0.000000 12.977352 -52.516392 10.750363 -34.298881 -12.302596 -22.489511 35.780192 11.857089 -4.083582 0.624188 -18.452080 26.145645 6.438173 12.075384 -20.241520 0.000000 0.000000 0.000000 7.394511 -48.462870 6.986026 13.941797 2.906394 -1.090034 1.956427 -4.872132 -1.020034 0.032582 0.231868 0.003727 0.000000 0.000000 0.000000 3.416435 -1.610621 -1.497198 4.161496 5.069333 2.089547 5.335010 43.349841 -15.149325 0.000000 0.000000 0.000000 2.960624 -3.967520 -2.270050 5.888836 -4.731008 -13.460823 -1.830872 -3.847327 1.870909 -44.872717 17.998571 -20.480375 9.994642 -32.341629 3.651505 0.000000 0.000000 0.000000 4.728035 -2.686738 -1.237559 -3.552717 2.463900 10.016940 2.575464 2.099337 1.008370 -6.661275 -8.848158 47.724461 -12.236970 22.264578 10.270535 0.000000 0.000000 0.000000 
-1.651341 90.321304 -0.449104 0.000000 0.000000 0.000000 13.075186 -54.058557 10.684200 -40.955891 13.644708 22.777002 41.453552 -10.687082 1.943367 -5.989214 2.816599 -12.823432 -0.602751 -6.064721 4.006136 0.000000 0.000000 0.000000 14.158225 -52.076805 10.917181 -35.649411 -11.198457 -21.285004 37.295722 11.437279 -4.226344 -0.828542 -19.258311 24.712550 4.719193 12.177711 -18.844442 0.000000 0.000000 0.000000 9.281352 -48.208650 7.513213 13.117618 2.662226 -0.661036 1.774885 -5.257184 -0.862103 0.048868 0.250951 0.008492 0.000000 0.000000 0.000000 3.428930 -2.073936 -1.267859 3.638038 5.744472 1.348901 4.799158 46.898159 -16.508209 0.000000 0.000000 0.000000 2.790049 -4.361781 -2.010025 5.688509 -5.505896 -13.024517 -1.789093 -3.937082 1.654152 -46.614518 17.377191 -19.617294 11.261210 -30.902641 4.759762 0.000000 0.000000 0.000000 4.501173 -3.161155 -1.059389 -3.751173 2.969554 10.868519 2.391907 1.659212 1.116843 -9.676042 -8.113607 46.280272 -12.407360 20.505526 10.436401 0.000000 0.000000 0.000000 
-1.920949 89.471069 1.367390 0.000000 0.000000 0.000000 14.282688 -53.230284 11.044462 -41.005850 13.020871 22.022297 44.694019 -11.410943 2.223372 -9.596566 2.917772 -11.537365 0.425218 -5.959838 4.068691 0.000000 0.000000 0.000000 15.121901 -51.356957 11.143606 -37.843172 -10.213620 -20.116796 39.995972 11.496667 -4.619960 -3.106858 -19.634583 23.949461 3.284006 12.292324 -18.118608 0.000000 0.000000 0.000000 11.078042 -47.555028 8.113571 12.457479 2.429966 -0.275646 1.604554 -5.652869 -0.729478 0.110801 0.237304 0.005223 0.000000 0.000000 0.000000 3.378729 -2.568127 -1.100659 3.204247 6.494603 0.333891 4.607587 50.375848 -17.515800 0.000000 0.000000 0.000000 2.622374 -4.781684 -1.787373 5.484084 -6.246365 -12.620104 -1.740929 -4.152453 1.307334 -48.554353 16.413389 -18.987246 12.975473 -29.291335 6.274462 0.000000 0.000000 0.000000 4.301881 -3.679898 -0.938905 -3.964769 3.089784 11.610779 2.510971 1.561797 1.314085 -11.557460 -7.238928 45.453727 -12.770152 19.871199 10.721006 0.000000 0.000000 0.000000 
-2.276992 87.741470 2.793392 0.000000 0.000000 0.000000 15.570526 -51.912706 11.638151 -42.385046 11.528880 21.494279 48.777051 -12.612338 2.831449 -12.567972 2.754315 -10.879251 0.833107 -5.854022 4.099920 0.000000 0.000000 0.000000 16.025854 -50.270756 11.567633 -40.707422 -9.597914 -19.170022 44.013910 11.996703 -5.328391 -6.271415 -19.633457 23.882709 2.359321 12.419837 -18.117135 0.000000 0.000000 0.000000 12.810978 -46.380256 8.799582 12.019773 2.227616 0.014138 1.445377 -6.042276 -0.674722 0.165385 0.206772 0.009456 0.000000 0.000000 0.000000 3.254931 -3.035951 -1.037989 2.829500 7.239913 -0.854625 4.523045 53.445363 -17.919613 0.000000 0.000000 0.000000 2.470183 -5.179134 -1.674469 5.301954 -6.915188 -12.170092 -1.818863 -4.290021 0.947844 -50.854324 15.216360 -18.370977 14.909115 -27.470507 8.037196 0.000000 0.000000 0.000000 4.183804 -4.159515 -0.920257 -4.161552 2.836684 12.190621 2.728835 1.738598 1.606183 -12.542095 -6.569967 45.235882 -13.331290 20.228995 11.021245 0.000000 0.000000 0.000000 
-2.652623 85.358208 3.676781 0.000000 0.000000 0.000000 16.894123 -50.132837 12.408826 -45.167723 9.175800 21.213659 53.423141 -14.284999 3.806088 -14.677236 2.544157 -11.218711 0.542913 -5.760745 3.975538 0.000000 0.000000 0.000000 17.005528 -48.759013 12.169663 -43.970156 -9.403868 -18.543282 49.171314 12.681833 -6.369173 -10.394165 -19.464646 24.061491 1.931502 12.544184 -18.623879 0.000000 0.000000 0.000000 14.632968 -44.946302 9.689556 11.756128 2.073302 0.222162 1.334729 -6.398204 -0.720767 0.169372 0.201194 0.000414 0.000000 0.000000 0.000000 3.081210 -3.448430 -1.088588 2.468878 7.943919 -2.100359 4.293582 55.981948 -17.682042 0.000000 0.000000 0.000000 2.356404 -5.546368 -1.701036 5.161649 -7.483038 -11.548634 -1.882758 -4.418186 0.610734 -53.540962 13.741796 -17.520830 16.837888 -25.459505 9.855386 0.000000 0.000000 0.000000 4.150381 -4.557636 -0.999118 -4.319353 2.337762 12.583812 2.891444 2.111818 2.047484 -13.137016 -6.400729 45.535184 -14.110744 21.195843 11.253935 0.000000 0.000000 0.000000 
-2.915266 82.484940 4.110928 0.000000 0.000000 0.000000 18.096972 -47.883936 13.150922 -49.045884 6.148331 21.035239 58.261568 -16.023269 4.981170 -16.072929 2.505730 -12.308926 0.151782 -5.660074 3.563039 0.000000 0.000000 0.000000 18.086315 -47.059245 12.926356 -47.433700 -9.501543 -18.356065 55.205226 13.322618 -7.639752 -15.147466 -19.321883 23.973189 2.198559 12.599112 -19.436659 0.000000 0.000000 0.000000 16.492081 -43.323682 10.769721 11.603679 1.978272 0.360553 1.297724 -6.717204 -0.862711 0.141368 0.198674 0.012820 0.000000 0.000000 0.000000 2.933062 -3.816091 -1.218932 2.062105 8.599183 -3.296745 3.521749 58.010019 -16.855508 0.000000 0.000000 0.000000 2.290254 -5.888380 -1.840951 5.071675 -7.979636 -10.790005 -1.888502 -4.596628 0.309406 -56.467773 11.916753 -16.349181 18.505897 -23.198222 11.473932 0.000000 0.000000 0.000000 4.212777 -4.872620 -1.148073 -4.426178 1.763973 12.738958 2.934830 2.599973 2.716294 -13.770256 -6.624922 46.139509 -15.060680 22.417342 11.373831 0.000000 0.000000 0.000000 
